<?xml version="1.0" encoding="UTF-8"?>
<svg id="Layer_2" data-name="Layer 2" xmlns="http://www.w3.org/2000/svg" viewBox="0 0 383.27 384">
  <defs>
    <style>
      .cls-1 {
        fill: #0060ff;
      }
    </style>
  </defs>
  <g id="Layer_1-2" data-name="Layer 1">
    <g>
      <path class="cls-1" d="m84.61,384c-1.01-.42-2.01-.89-3.03-1.27-8.12-3.02-13.31-10.17-13.52-18.85-.11-4.62-.11-9.25,0-13.87.05-2-.47-3.02-2.51-3.84-11.89-4.78-18.34-14.47-18.35-27.33-.02-52.24,0-104.48,0-156.73,0-1-.11-2.03.11-2.99.67-2.87,2.45-4.64,5.5-4.63,3.06,0,4.85,1.78,5.48,4.66.26,1.2.12,2.49.12,3.74,0,33.37,0,66.74,0,100.11,0,1.47,0,2.95,0,4.9,1.62,0,2.94,0,4.26,0,10.85,0,21.7.03,32.56-.01,5.74-.02,9.69,2.42,11.93,7.83,3.49,8.41,7.19,16.73,10.73,25.12,2.76,6.54-.34,11.15-7.48,11.16-15.84.03-31.68,0-47.52,0-1.35,0-2.7,0-4.74,0,.33,4.37.16,8.52,1.05,12.43,1.61,7.05,8,11.9,15.21,12.28,1.37.07,2.74.04,4.12.04,74.84,0,149.69-.24,224.53.2,15.46.09,23.95-8.2,21.51-24.95-1.25,0-2.58,0-3.9,0-15.84,0-31.68.01-47.52,0-7.41,0-10.49-4.54-7.65-11.3,3.53-8.39,7.21-16.72,10.73-25.12,2.19-5.23,6.05-7.69,11.65-7.68,10.85.02,21.7,0,32.56,0,1.35,0,2.7,0,4.49,0,0-1.64,0-2.97,0-4.3,0-67.24,0-134.48,0-201.72,0-12.5-6.65-19.12-19.22-19.12-76.09,0-152.18,0-228.27,0-12.3,0-18.99,6.68-18.99,18.96,0,22.87,0,45.74,0,68.61,0,.87.02,1.75,0,2.62-.13,3.96-2.45,6.54-5.77,6.43-3.2-.11-5.41-2.58-5.43-6.38-.05-11.25-.02-22.5-.02-33.74,0-3.72,0-7.43,0-11.33h-13.48c0,1.31,0,2.63,0,3.94,0,20.87,0,41.74,0,62.62,0,8.49-4.19,12.73-12.55,12.75-3.37.01-6.74.07-10.1-.02-6.33-.17-10.95-4.57-10.98-10.89-.1-23-.11-45.99,0-68.99.03-6.46,4.73-10.74,11.41-10.83,5.86-.08,11.73-.02,17.59-.02,5.85,0,11.7,0,18.13,0,0-5.98-.11-11.8.02-17.61.35-14.93,12.42-26.99,27.33-27.35,5.36-.13,10.73-.03,16.09-.04,1.22,0,2.43,0,4.27,0-1.54-14.48.71-26.8,16.64-31.5h160.19c15.93,4.69,18.17,17,16.63,31.5,3.8,0,7.03.24,10.21-.04,26.28-2.3,39.81,12.01,37.56,37.44-.22,2.43-.03,4.9-.03,7.6,11.41,0,22.36.22,33.29-.08,6.64-.19,11.29,2.14,13.87,8.33v74.25c-2.59,6.19-7.22,8.87-13.88,8.28-2.23-.2-4.49-.03-6.73-.03-8.96-.01-13.06-4.07-13.06-12.99-.01-20.75,0-41.49,0-62.24v-4h-13.48c0,1.75,0,3.24,0,4.73,0,75.24,0,150.47,0,225.71,0,13.22-6.32,22.86-18.35,27.71-2.04.82-2.55,1.85-2.51,3.85.1,4.75.2,9.51-.05,14.24-.46,8.85-5.03,14.91-13.14,18.34-1.12.48-2.25.94-3.38,1.4h-45.66c-12.52-4.06-17.65-12.85-16.64-25.74.26-3.31.04-6.65.04-9.98h-89.61c0,5.51.12,10.75-.03,15.97-.2,7-3.42,12.46-9.19,16.27-2.24,1.48-4.88,2.34-7.33,3.48h-45.66ZM277.39,31.38c0-3.04.01-5.65,0-8.26-.05-8.69-3.28-11.88-12.06-11.88-49.12,0-98.24,0-147.37,0-1.25,0-2.5-.06-3.74.09-4.05.49-7.52,3.37-7.91,7.32-.41,4.16-.09,8.4-.09,12.71h171.17ZM79.3,348.18c0,5.54-.17,10.77.05,15.99.2,4.75,3.92,8.44,8.78,8.5,12.82.16,25.64.14,38.46.02,4.57-.04,8.53-3.36,8.82-7.63.37-5.55.09-11.13.09-16.88h-56.19Zm168.38,0c0,5.42-.12,10.41.03,15.39.16,5.21,3.8,9.05,8.98,9.12,12.82.15,25.64.13,38.46,0,4.39-.05,8.34-3.28,8.63-7.39.4-5.65.1-11.35.1-17.11h-56.2Zm-189.17-47.55h47.06c-2.74-6.4-5.49-12.49-7.94-18.71-.9-2.28-2.15-2.85-4.44-2.82-10.46.12-20.93.04-31.39.06-1.07,0-2.15.14-3.3.22v21.25Zm266.21-21.48c-12.28,0-24.1-.02-35.92.04-.74,0-1.91.38-2.15.91-3.02,6.73-5.91,13.52-8.91,20.46h46.98v-21.42ZM11.51,87.92v67.78h10.77v-67.78h-10.77Zm349.57,0v67.78h10.77v-67.78h-10.77Z"/>
      <path class="cls-1" d="m191.27,227.25c-35.55,0-71.1,0-106.66,0-9.87,0-14.97-5.11-14.97-15,0-40.25,0-80.49,0-120.74,0-9.88,5.11-15,14.98-15.01,71.35,0,142.71,0,214.06,0,9.85,0,14.97,5.13,14.98,15.01,0,40.25,0,80.49,0,120.74,0,9.88-5.12,14.99-14.98,14.99-35.8,0-71.6,0-107.41,0Zm.2-11.25c35.3,0,70.6,0,105.91,0q5.04,0,5.05-4.89c0-39.5,0-78.99,0-118.49q0-4.87-5.08-4.88c-70.48,0-140.96,0-211.44,0q-5.04,0-5.05,4.9c0,39.5,0,78.99,0,118.49q0,4.85,5.08,4.86c35.18,0,70.35,0,105.53,0Z"/>
      <path class="cls-1" d="m134.12,261c2.14,4.92,4.05,9.36,6,13.79,3.46,7.88,6.87,15.79,10.51,23.58.51,1.1,2.28,2.28,3.47,2.28,25.07.13,50.15.12,75.22.02,1.07,0,2.7-.84,3.1-1.72,5.49-12.16,10.82-24.4,16.17-36.63.14-.31.06-.72.09-1.32-6.67,0-13.27.02-19.86,0-4.43-.02-7-2.01-7.12-5.43-.12-3.54,2.59-5.78,7.16-5.8,6.99-.03,13.97-.06,20.96,0,8.82.08,13.46,6.98,9.97,15.03-5.85,13.51-11.86,26.94-17.78,40.42-2.04,4.65-5.54,6.8-10.58,6.79-26.57-.03-53.14-.03-79.71,0-4.89,0-8.35-2.1-10.33-6.59-6.04-13.7-12.16-27.36-18.06-41.11-3.19-7.44,1.46-14.48,9.56-14.51,22.45-.1,44.91-.06,67.36-.02,4.04,0,6.47,2.31,6.41,5.73-.06,3.38-2.51,5.48-6.63,5.48-20.46.03-40.92.01-61.38.01-1.33,0-2.66,0-4.52,0Z"/>
      <path class="cls-1" d="m191.65,65.25c-19.08,0-38.17,0-57.25,0-1.12,0-2.28.12-3.36-.12-2.87-.64-4.62-2.42-4.63-5.5,0-3.07,1.74-4.86,4.62-5.5,1.07-.24,2.24-.12,3.36-.12,38.17,0,76.34,0,114.51,0,1.12,0,2.28-.12,3.36.12,2.88.64,4.62,2.42,4.63,5.49,0,3.07-1.74,4.86-4.62,5.5-1.07.24-2.23.12-3.36.12-19.08,0-38.17,0-57.25,0Z"/>
      <path class="cls-1" d="m192.04,275.25c8.09,0,16.19-.03,24.28.01,4.39.02,6.86,2.11,6.85,5.64,0,3.53-2.47,5.58-6.88,5.59-16.44.02-32.87.02-49.31,0-4.39,0-6.85-2.08-6.85-5.62,0-3.52,2.48-5.59,6.88-5.61,8.34-.03,16.68-.01,25.03-.01Z"/>
      <path class="cls-1" d="m100.16,65.22c-3.12-.09-5.54-2.77-5.36-5.93.17-3.01,2.67-5.34,5.65-5.26,3.13.09,5.52,2.74,5.35,5.92-.17,3.01-2.68,5.35-5.64,5.26Z"/>
      <path class="cls-1" d="m288.51,59.51c.06,3.15-2.49,5.75-5.6,5.71-2.97-.04-5.38-2.47-5.44-5.48-.06-3.18,2.46-5.75,5.58-5.7,2.97.04,5.39,2.47,5.45,5.48Z"/>
    </g>
  </g>
</svg>